<svg xmlns="http://www.w3.org/2000/svg" viewBox="0 0 612 612"><defs><style>.eae482ab-4aed-4563-9a53-d724475d5939{fill:#48a9a6;}.f4eed0e3-4890-4db6-b784-ffa36384e705{fill:#9f6e50;}.b14123ba-f11a-4d91-82e8-9933753af895{fill:#cc906e;}.a9fe88df-af7a-499b-a495-943ac1003560{fill:#f5d190;}.bbc6e902-cf6a-491a-887a-3495b7490370{fill:#b57e5f;}.b55e0095-e25e-4321-a911-de84d311bb24{fill:#fee09f;}.e5106d33-dbb4-4d73-81ee-dd9c1700fc25{fill:#ecc080;}.be616f98-55ea-4181-9a2e-9ef3f1e69daf{fill:#f5d090;}</style></defs><g id="e1ab73c4-6661-4695-b0bc-58944af15584" data-name="Capa 2"><circle class="eae482ab-4aed-4563-9a53-d724475d5939" cx="306" cy="306" r="306"/></g><g id="e11a92fb-35c2-4c32-8cd7-22bf51671c79" data-name="Capa 1"><path d="M745.91,1065.25c-6.75-6.14-14.82-8.53-23.76-8.52-30.45,0-60.91-.06-91.36.08-3.22,0-4.58-.85-5.48-4-4.37-15.16-8.94-30.26-13.53-45.35-3-9.89-9.44-14.68-19.65-14.7q-40.29,0-80.59,0c-10.24,0-16.7,4.8-19.69,14.64-4.64,15.22-9.26,30.44-13.66,45.73-.82,2.85-2,3.63-4.91,3.62-30.45-.1-60.9-.06-91.36-.07a38.4,38.4,0,0,0-10.64,1.22c-15.24,4.34-23.77,16.08-23.78,32.68q0,112.71,0,225.44c0,21,13.31,34.24,34.43,34.25h53.46q143.24,0,286.46,0c9.11,0,17.29-2.32,24.13-8.58,5.72-5.23,8.49-12,10.13-19.35V1084.55C754.39,1077.23,751.65,1070.46,745.91,1065.25Zm-256.33-8.65c2.45-8.22,4.86-16.2,7.18-24.2a2.41,2.41,0,0,1,2.84-2c2.12.12,4.26,0,6.38,0,3.85,0,6.47-1.12,7-5.13,2-1.3,9.35-3,13.87.2.83,4.13,3.79,4.94,7.44,4.94,22.61,0,45.21,0,67.82-.09,3,0,4.42.66,5.23,3.73,2,7.53,4.37,15,6.63,22.55Z" transform="translate(-245.8 -865.55)"/><path class="f4eed0e3-4890-4db6-b784-ffa36384e705" d="M526.9,1025.47c-4.59-1.86-9.74-2.21-13.87-.2-.77-4.84-2.53-7.14-7.85-7-3.51.1-4.23-1-2.86-4.06a38.93,38.93,0,0,0,1.29-4.18,7.15,7.15,0,0,1,7.43-5.43q40.87,0,81.76,0c4.6,0,6.25,1.68,8,7.3,1.94,6.26,1.94,6.26-4.51,6.26q-30.7,0-61.42,0C529.17,1018.23,527.12,1020.21,526.9,1025.47Z" transform="translate(-245.8 -865.55)"/><path class="b14123ba-f11a-4d91-82e8-9933753af895" d="M359.6,1196.21l-.12-94.94c0-4,0-8,0-12,.14-11.93,7.89-20.28,19.77-20.6s23.93,0,35.89-.15c3.44,0,2.66,2.14,2.66,4q0,46.27,0,92.55c0,1.47,0,2.93,0,4.39.07,5.07,2.15,7.8,6,7.83s6-2.59,6-7.69q0-47.67,0-95.34c0-6.57-.93-5.63,5.73-5.63q116.88,0,233.76-.1c3.56,0,4.64.79,4.62,4.53-.16,31.65-.09,63.3-.08,95a25.57,25.57,0,0,0,.15,4.38,5.37,5.37,0,0,0,5.06,4.81,5.5,5.5,0,0,0,6.23-3.82,13.45,13.45,0,0,0,.52-5.12c0-31.78.06-63.56-.08-95.35,0-3.48.79-4.48,4.36-4.39,10.76.26,21.54.06,32.31.1,13.74.05,21.76,8.1,21.75,21.88q0,52.86-.11,105.72c-1.82,6.17-7.16,8.82-12.22,11.19-8.13,3.8-17,3.8-25.79,3.26a3.09,3.09,0,0,1-1.75-.9c-3-8.25-8.08-14.5-16.67-17.34a25.06,25.06,0,0,0-31.34,15.1c-.28.75-.59,1.48-.88,2.22-1.69,1.36-3.7,1.31-5.69,1.31q-34.46,0-68.89,0c-1.85,0-3.74.13-5.42-.87-1.22-2.71,1.42-2.67,2.61-3.32,5.84-3.18,9.8-7.61,10.41-14.5a17.15,17.15,0,0,0-13.71-18.73,44.56,44.56,0,0,0-9.86-1.11q-13.14.11-26.27,0a42.8,42.8,0,0,0-9.85,1.17,17,17,0,0,0-13.28,13.76c-1.19,7.55,1.36,13.55,7.71,17.87,1.32.9,2.8,1.52,4.14,2.38.79.51,2.12,1,1.08,2.39-1.8,1.17-3.84,1-5.81,1q-34.11,0-68.2,0c-2.12,0-4.29.15-6.1-1.31-5.11-13.13-14.08-19.44-26.8-18.34-10.35.9-17.2,6.76-21.17,16.2-.3.72-.61,1.44-.92,2.16a2.79,2.79,0,0,1-1.36.79c-12.56.85-24.76.28-34.84-8.76A10.16,10.16,0,0,1,359.6,1196.21Z" transform="translate(-245.8 -865.55)"/><path class="a9fe88df-af7a-499b-a495-943ac1003560" d="M551,1183c5.83,0,11.67-.06,17.5,0,5.16.07,8.11,2.56,8.17,6.67s-3,6.87-8,6.91q-17.9.17-35.81,0c-5,0-8-2.86-8-6.94s3-6.57,8.2-6.64C539.08,1182.91,545.05,1183,551,1183Z" transform="translate(-245.8 -865.55)"/><path class="bbc6e902-cf6a-491a-887a-3495b7490370" d="M359.67,1313.35q0-38.3,0-76.58c1.75-.56,3,.54,4.41,1.28a43.21,43.21,0,0,0,22.07,5.53c4.63-.12,9.27,0,13.9,0,1.71,0,3.48-.17,4.89,1.15.79,8,4.2,14.22,11.84,17.42,11.73,4.92,23.82-2.56,25.87-15.85.39-1.84,1.65-2.6,3.41-2.76,1.46-.13,2.92-.12,4.38-.12H653.29c1.46,0,2.92,0,4.38.12,1.76.17,3,.92,3.41,2.76,1.59,10.27,8.93,17.15,18.53,17.38,9.37.22,17.17-6.8,18.87-17,.11-.65.21-1.31.31-2,1.54-1.41,3.46-1.13,5.28-1.15,6.09-.08,12.19.26,18.27-.14a41.41,41.41,0,0,0,17-5.18c1.47-.8,2.84-2.06,4.75-1.48q0,38.3,0,76.58c-2.73,5.4-7.8,7.41-13.16,8.71a49.61,49.61,0,0,1-11.86,1.35q-167.17,0-334.34-.05c-7.35,0-14.65-.74-20.93-5.27C362,1316.83,360.4,1315.48,359.67,1313.35Z" transform="translate(-245.8 -865.55)"/><path class="f4eed0e3-4890-4db6-b784-ffa36384e705" d="M359.67,1313.35c6.73,6.73,15.16,8.77,24.31,8.77H719.74c9.15,0,17.57-2,24.31-8.77.55,12.45-7.83,21.44-20.33,21.49-21.93.1-43.86,0-65.79,0q-138.18,0-276.34,0c-11.67,0-19.5-5.79-21.67-16A15.88,15.88,0,0,1,359.67,1313.35Z" transform="translate(-245.8 -865.55)"/><path class="f4eed0e3-4890-4db6-b784-ffa36384e705" d="M661.08,1246.29c-1-1.55-2.52-1.6-4.18-1.6q-105,0-210.08,0c-1.66,0-3.18,0-4.18,1.6,0-4,.05-8-.05-12,0-1.87.64-2.71,2.54-2.56,1.06.08,2.13,0,3.2,0H619.11c6.13,0,7.69-1.07,9.1-6.1,4.43-2.38,9.1-1.31,13.72-.92.51,5,2.29,6.82,7.23,7a79.81,79.81,0,0,0,8.33,0c2.64-.18,3.86.54,3.67,3.46C660.92,1238.88,661.09,1242.59,661.08,1246.29Z" transform="translate(-245.8 -865.55)"/><path class="bbc6e902-cf6a-491a-887a-3495b7490370" d="M642,1229.36c-4.47,1.77-9.17.25-13.72.91-1.48-5.2-2.44-5.88-8.6-5.88q-83.19,0-166.37.08c-3.88,0-5.44-.54-4.42-4.81.67-2.8.13-5.82-.52-8.69q38.3,0,76.58,0c1.29,0,2.69.4,3.82-.63.88-1.07,2.08-1,3.29-.95q19.88.83,39.75,0c1.21-.05,2.41-.12,3.29.95,1.13,1,2.53.63,3.81.63q38.29,0,76.59,0a25.74,25.74,0,0,0-.28,11c.52,2.29-.46,2.47-2.18,2.41-1.45-.05-2.91,0-4.37,0C645.12,1224.34,642.85,1225.92,642,1229.36Z" transform="translate(-245.8 -865.55)"/><path class="f4eed0e3-4890-4db6-b784-ffa36384e705" d="M404.93,1244.72c-5.18,0-10.37-.25-15.54,0a47.44,47.44,0,0,1-29.73-8V1221.7c2.35,1.63,4.3,3.11,6.37,4.42,6.71,4.23,14.23,5.47,22,5.63,4.76.11,9.53.09,14.29,0,2,0,2.91.51,2.8,2.67C404.93,1237.84,405,1241.28,404.93,1244.72Z" transform="translate(-245.8 -865.55)"/><path class="f4eed0e3-4890-4db6-b784-ffa36384e705" d="M744.06,1236.77c-9.6,6.54-20.28,8.66-31.73,8-4.5-.26-9,0-13.54,0,0-3.3,0-6.62-.19-9.91-.17-2.53.88-3.12,3.22-3.08,5.68.1,11.38.12,17.06-.12a39,39,0,0,0,25.18-10.28Z" transform="translate(-245.8 -865.55)"/><path class="b55e0095-e25e-4321-a911-de84d311bb24" d="M437,1212.84a13.16,13.16,0,0,1-13.07,13.24,13.44,13.44,0,0,1-13.25-13.18,13.22,13.22,0,0,1,13.19-13.14A13,13,0,0,1,437,1212.84Z" transform="translate(-245.8 -865.55)"/><path class="b55e0095-e25e-4321-a911-de84d311bb24" d="M666.71,1212.89a13,13,0,0,1,13.08-13.13A13.22,13.22,0,0,1,693,1212.85a13.47,13.47,0,0,1-13.2,13.24A13.18,13.18,0,0,1,666.71,1212.89Z" transform="translate(-245.8 -865.55)"/><path class="bbc6e902-cf6a-491a-887a-3495b7490370" d="M359.64,1192.83c5.93,7.5,13.34,12,23.13,12.92,5.57.52,11.09.46,16.63.64-.25,3.81-1.3,7.61-.1,11.44.31,1,.07,1.93-1.26,1.91-8.3-.12-16.81,1.11-24.54-3.16C364.2,1211.44,359.63,1203.45,359.64,1192.83Z" transform="translate(-245.8 -865.55)"/><path class="bbc6e902-cf6a-491a-887a-3495b7490370" d="M704.31,1206.39c6.35,0,12.71.25,19-.82a31.75,31.75,0,0,0,20.75-12.74c.13,15.23-10.44,26-26.45,26.91-3.7.2-7.43,0-11.14,0-1.35,0-2.58-.21-2.05-1.94C705.6,1214,704.57,1210.2,704.31,1206.39Z" transform="translate(-245.8 -865.55)"/><path class="e5106d33-dbb4-4d73-81ee-dd9c1700fc25" d="M417.68,1246.5a3.81,3.81,0,0,1-.64-2.63c-.23-6.3-.23-6.29,5.88-5.88a14.54,14.54,0,0,0,2,0c6-.4,6-.4,5.59,5.91-1.5,2-3.68,1.81-5.8,1.88C422.34,1245.86,419.92,1245.3,417.68,1246.5Z" transform="translate(-245.8 -865.55)"/><path class="e5106d33-dbb4-4d73-81ee-dd9c1700fc25" d="M673.23,1243.91c-.44-6.31-.44-6.31,5.59-5.91.39,0,.79,0,1.19.06,2.16.14,5.35-1.75,6.21,0a10.57,10.57,0,0,1-.18,8.44c-2.24-1.21-4.66-.65-7-.72C676.91,1245.72,674.73,1245.87,673.23,1243.91Z" transform="translate(-245.8 -865.55)"/><path class="be616f98-55ea-4181-9a2e-9ef3f1e69daf" d="M417.68,1246.5c.21-1.26,0-2.54,2.25-2.1a20.93,20.93,0,0,0,10.56-.49c-.1,4.53-1.92,7.14-5.66,7.51S418.47,1250.46,417.68,1246.5Z" transform="translate(-245.8 -865.55)"/><path class="be616f98-55ea-4181-9a2e-9ef3f1e69daf" d="M673.23,1243.91a20.93,20.93,0,0,0,10.56.49c2.28-.44,2,.84,2.25,2.11-1.39,3.87-3.89,5.55-7.34,4.91C675.06,1250.75,673.35,1248.41,673.23,1243.91Z" transform="translate(-245.8 -865.55)"/></g></svg>